<svg width="24" height="24" xmlns="http://www.w3.org/2000/svg">

 <g>
  <title>background</title>
  <rect fill="none" id="canvas_background" height="402" width="582" y="-1" x="-1"/>
 </g>
 <g>
  <title>Layer 1</title>
  <path fill="#ffffff" id="mobile" d="m20,4c0,-2.2 -1.799999,-4 -4,-4l-8,0c-2.2,0 -4,1.8 -4,4l0,16c0,2.200001 1.8,4 4,4l8,0c2.200001,0 4,-1.799999 4,-4l0,-16zm-7,18l-2,0c-0.6,0 -1,-0.4 -1,-1c0,-0.6 0.4,-1 1,-1l2,0c0.6,0 1,0.4 1,1c0,0.6 -0.4,1 -1,1zm5,-5c0,0.6 -0.4,1 -1,1l-10,0c-0.6,0 -1,-0.4 -1,-1l0,-12c0,-0.6 0.4,-1 1,-1l10,0c0.6,0 1,0.4 1,1l0,12z"/>
 </g>
</svg>