<svg width="23.999999999999996" height="23.999999999999996" xmlns="http://www.w3.org/2000/svg">

 <g>
  <title>background</title>
  <rect fill="none" id="canvas_background" height="402" width="582" y="-1" x="-1"/>
 </g>
 <g>
  <title>Layer 1</title>
  <path fill="#ffffff" id="email" d="m20,3l-16,0c-2.2,0 -4,1.8 -4,4l0,10c0,2.200001 1.8,4 4,4l16,0c2.200001,0 4,-1.799999 4,-4l0,-10c0,-2.2 -1.799999,-4 -4,-4zm1.6,5.8l-7.900001,5.3c-0.5,0.299999 -1.099999,0.5 -1.7,0.5s-1.2,-0.200001 -1.7,-0.5l-7.9,-5.3c-0.4,-0.3 -0.5,-0.9 -0.2,-1.4c0.3,-0.4 0.9,-0.5 1.4,-0.2l7.9,5.3c0.3,0.2 0.8,0.2 1.1,0l7.9,-5.3c0.5,-0.3 1.1,-0.2 1.4,0.3c0.200001,0.4 0.1,1 -0.299999,1.3z"/>
 </g>
</svg>