<svg width="139" height="139" xmlns="http://www.w3.org/2000/svg">

 <g>
  <title>background</title>
  <rect fill="none" id="canvas_background" height="402" width="582" y="-1" x="-1"/>
 </g>
 <g>
  <title>Layer 1</title>
  <path fill="#ffffff" id="svg_1" d="m67.520454,81.952003c-9.284,-7.634003 -15.483002,-17.054001 -18.742001,-22.414005l-2.431,-4.582996c0.849998,-0.912003 7.332001,-7.853001 10.140999,-11.619003c3.529999,-4.729 -1.588001,-9 -1.588001,-9s-14.400997,-14.402998 -17.682999,-17.259998c-3.282001,-2.861 -7.059998,-1.272 -7.059998,-1.272c-6.898001,4.457 -14.049002,8.332 -14.478002,26.967999c-0.016,17.448002 13.229001,35.444004 27.551999,49.376003c14.346001,15.734001 34.042999,31.503998 53.085999,31.486c18.634003,-0.425003 22.508003,-7.575005 26.965004,-14.473c0,0 1.589996,-3.775002 -1.268005,-7.060005c-2.860001,-3.283997 -17.264999,-17.687996 -17.264999,-17.687996s-4.267998,-5.119003 -8.998001,-1.585999c-3.524994,2.634995 -9.854996,8.495995 -11.379997,9.917c0.002998,0.004997 -10.585999,-5.640007 -16.850998,-10.792z"/>
 </g>
</svg>