<svg width="128" height="128" xmlns="http://www.w3.org/2000/svg">

 <g>
  <title>background</title>
  <rect fill="none" id="canvas_background" height="402" width="582" y="-1" x="-1"/>
 </g>
 <g>
  <title>Layer 1</title>
  <path fill="#ffffff" id="svg_2" d="m64,126c34.199997,0 62,-27.800003 62,-62s-27.800003,-62 -62,-62s-62,27.799999 -62,62s27.799999,62 62,62zm-48,-37.300003l25.200001,-0.199997c2.799999,10.099998 7.5,19.900002 13.899998,28.699997c-17.099998,-2.799995 -31.399998,-13.699997 -39.099998,-28.5zm31.599998,-41.699997l31.400002,0c2.300003,11 2.300003,22.300003 0.199997,33.300003l-31.599998,0.199997c-2.299999,-11.099998 -2.299999,-22.5 0,-33.5zm15.700001,67.900002c-6.299999,-8.099998 -10.899998,-17 -13.700001,-26.400002l27.5,-0.199997c-2.900002,9.399994 -7.5,18.399994 -13.799999,26.599998zm8.000004,2.599998c6.599998,-9 11.299995,-18.900002 14.099998,-29.300003l26.900002,-0.199997c-7.800003,15.699997 -23,27 -41,29.5zm46.699997,-53.5c0,5.599998 -0.900002,11 -2.400002,16l-28.299995,0.199997c2,-11 1.899994,-22.199997 -0.200005,-33.199997l28.099998,0c1.800003,5.299999 2.800003,11.099998 2.800003,17zm-6.199997,-25l-26.600006,0c-2.899994,-10 -7.5,-19.700001 -13.899994,-28.5c17.699997,2.4 32.599998,13.299999 40.5,28.5zm-34.900002,0l-27.200001,0c2.899998,-9.200001 7.399998,-17.9 13.599998,-25.9c6.200001,8 10.700001,16.699999 13.600002,25.9zm-21.800003,-28.2c-6.299999,8.7 -10.899998,18.2 -13.699997,28.2l-25.200001,0c7.699999,-14.700001 21.899998,-25.4 38.899998,-28.2zm-15.599998,36.2c-2.099998,11.099998 -2.099998,22.400002 -0.099998,33.5l-26.700002,0.199997c-1.8,-5.299995 -2.7,-10.899994 -2.7,-16.699997c0,-5.900002 1,-11.700001 2.8,-17l26.7,0z"/>
 </g>
</svg>